<?xml version="1.0" encoding="UTF-8" standalone="no"?>
<!-- Created with Inkscape (http://www.inkscape.org/) -->

<svg
   xmlns:dc="http://purl.org/dc/elements/1.1/"
   xmlns:cc="http://creativecommons.org/ns#"
   xmlns:rdf="http://www.w3.org/1999/02/22-rdf-syntax-ns#"
   xmlns:svg="http://www.w3.org/2000/svg"
   xmlns="http://www.w3.org/2000/svg"
   xmlns:sodipodi="http://sodipodi.sourceforge.net/DTD/sodipodi-0.dtd"
   xmlns:inkscape="http://www.inkscape.org/namespaces/inkscape"
   width="589.95923pt"
   height="380.14526pt"
   viewBox="0 0 208.12451 134.1068"
   version="1.1"
   id="svg8"
   inkscape:version="0.92.1 r15371"
   sodipodi:docname="parameters.svg"
   inkscape:export-filename="/extra2/Working/EBRS Tutorial/parameters.png"
   inkscape:export-xdpi="300"
   inkscape:export-ydpi="300">
  <sodipodi:namedview
     id="base"
     pagecolor="#ffffff"
     bordercolor="#666666"
     borderopacity="1.0"
     inkscape:pageopacity="0.0"
     inkscape:pageshadow="2"
     inkscape:zoom="0.7"
     inkscape:cx="470.46168"
     inkscape:cy="317.00254"
     inkscape:document-units="mm"
     inkscape:current-layer="svg8"
     showgrid="false"
     inkscape:window-width="1920"
     inkscape:window-height="1136"
     inkscape:window-x="0"
     inkscape:window-y="27"
     inkscape:window-maximized="1"
     fit-margin-top="10"
     fit-margin-left="10"
     units="pt"
     fit-margin-right="10"
     fit-margin-bottom="10" />
  <defs
     id="defs2">
    <marker
       inkscape:stockid="StopL"
       orient="auto"
       refY="0"
       refX="0"
       id="marker6323"
       style="overflow:visible"
       inkscape:isstock="true">
      <path
         id="path6321"
         d="M 0,5.65 V -5.65"
         style="fill:none;fill-opacity:0.75;fill-rule:evenodd;stroke:#000000;stroke-width:1.00000003pt;stroke-opacity:1"
         transform="scale(0.8)"
         inkscape:connector-curvature="0" />
    </marker>
    <marker
       inkscape:stockid="StopL"
       orient="auto"
       refY="0"
       refX="0"
       id="marker6313"
       style="overflow:visible"
       inkscape:isstock="true">
      <path
         id="path6311"
         d="M 0,5.65 V -5.65"
         style="fill:none;fill-opacity:0.75;fill-rule:evenodd;stroke:#000000;stroke-width:1.00000003pt;stroke-opacity:1"
         transform="scale(0.8)"
         inkscape:connector-curvature="0" />
    </marker>
    <marker
       inkscape:isstock="true"
       style="overflow:visible"
       id="marker4930"
       refX="0"
       refY="0"
       orient="auto"
       inkscape:stockid="StopL">
      <path
         transform="scale(0.8)"
         style="fill:none;fill-opacity:0.75;fill-rule:evenodd;stroke:#000000;stroke-width:1.00000003pt;stroke-opacity:1"
         d="M 0,5.65 V -5.65"
         id="path4928"
         inkscape:connector-curvature="0" />
    </marker>
    <marker
       inkscape:isstock="true"
       style="overflow:visible"
       id="marker4908"
       refX="0"
       refY="0"
       orient="auto"
       inkscape:stockid="StopL">
      <path
         transform="scale(0.8)"
         style="fill:none;fill-opacity:0.75;fill-rule:evenodd;stroke:#000000;stroke-width:1.00000003pt;stroke-opacity:1"
         d="M 0,5.65 V -5.65"
         id="path4906"
         inkscape:connector-curvature="0" />
    </marker>
  </defs>
  <metadata
     id="metadata5">
    <rdf:RDF>
      <cc:Work
         rdf:about="">
        <dc:format>image/svg+xml</dc:format>
        <dc:type
           rdf:resource="http://purl.org/dc/dcmitype/StillImage" />
        <dc:title></dc:title>
      </cc:Work>
    </rdf:RDF>
  </metadata>
  <g
     inkscape:label="Layer 1"
     inkscape:groupmode="layer"
     id="layer1"
     transform="translate(-14.645199,-67.626468)" />
  <path
     inkscape:connector-curvature="0"
     id="path4522"
     d="m 3.5277778,69.867572 c 201.0689422,0 201.0689422,0 201.0689422,0"
     style="fill:none;fill-rule:evenodd;stroke:#000000;stroke-width:0.35277778;stroke-linecap:butt;stroke-linejoin:miter;stroke-miterlimit:4;stroke-dasharray:none;stroke-dashoffset:0;stroke-opacity:1" />
  <path
     inkscape:connector-curvature="0"
     id="path4524"
     d="m 72.894087,11.054476 c 0,58.586306 0,58.586306 0,58.586306"
     style="fill:none;fill-rule:evenodd;stroke:#000000;stroke-width:0.5291667;stroke-linecap:butt;stroke-linejoin:miter;stroke-miterlimit:4;stroke-dasharray:3.175, 3.175;stroke-dashoffset:0;stroke-opacity:1" />
  <flowRoot
     transform="matrix(0.26458333,0,0,0.26458333,-7.5770443,-65.434206)"
     style="font-style:normal;font-variant:normal;font-weight:normal;font-stretch:normal;font-size:14px;line-height:125%;font-family:Roboto;-inkscape-font-specification:Roboto;text-align:start;letter-spacing:0px;word-spacing:0px;writing-mode:lr-tb;text-anchor:start;fill:#000000;fill-opacity:1;stroke:none;stroke-width:1px;stroke-linecap:butt;stroke-linejoin:miter;stroke-opacity:1"
     id="flowRoot4888"
     xml:space="preserve"><flowRegion
       id="flowRegion4890"><rect
         y="489.66251"
         x="42.857143"
         height="42.857143"
         width="42.857143"
         id="rect4892" /></flowRegion><flowPara
       style="font-style:italic;font-variant:normal;font-weight:normal;font-stretch:normal;font-size:26.66666794px;font-family:Roboto;-inkscape-font-specification:'Roboto Italic'"
       id="flowPara4894">m</flowPara></flowRoot>  <flowRoot
     xml:space="preserve"
     id="flowRoot4902"
     style="font-style:normal;font-variant:normal;font-weight:normal;font-stretch:normal;font-size:14px;line-height:125%;font-family:Roboto;-inkscape-font-specification:Roboto;text-align:start;letter-spacing:0px;word-spacing:0px;writing-mode:lr-tb;text-anchor:start;fill:#000000;fill-opacity:1;stroke:none;stroke-width:1px;stroke-linecap:butt;stroke-linejoin:miter;stroke-opacity:1"
     transform="matrix(0.26458333,0,0,0.26458333,19.259266,-94.538373)"><flowRegion
       id="flowRegion4898"><rect
         id="rect4896"
         width="42.857143"
         height="42.857143"
         x="42.857143"
         y="489.66251" /></flowRegion><flowPara
       id="flowPara4900"
       style="font-style:italic;font-variant:normal;font-weight:normal;font-stretch:normal;font-size:26.66666794px;font-family:Roboto;-inkscape-font-specification:'Roboto Italic'">A</flowPara></flowRoot>  <path
     inkscape:connector-curvature="0"
     id="path4904"
     d="M 72.941133,73.647332 H 195.50956"
     style="fill:none;fill-rule:evenodd;stroke:#000000;stroke-width:0.5291667;stroke-linecap:butt;stroke-linejoin:miter;stroke-miterlimit:4;stroke-dasharray:1.5875, 1.5875;stroke-dashoffset:0;stroke-opacity:1;marker-start:url(#marker4908);marker-end:url(#marker4930)" />
  <g
     id="g5081"
     transform="matrix(0.6523157,0,0,0.6523157,-78.825349,3.2162233)">
    <g
       word-spacing="normal"
       letter-spacing="normal"
       font-size-adjust="none"
       font-stretch="normal"
       font-weight="normal"
       font-variant="normal"
       font-style="normal"
       stroke-miterlimit="10.433"
       xml:space="preserve"
       transform="matrix(0.3,0,0,-0.3,-52.5,222.75)"
       id="content"
       style="font-style:normal;font-variant:normal;font-weight:normal;font-stretch:normal;letter-spacing:normal;word-spacing:normal;text-anchor:start;fill:none;fill-opacity:1;fill-rule:evenodd;stroke:#000000;stroke-linecap:butt;stroke-linejoin:miter;stroke-miterlimit:10.43299961;stroke-dasharray:none;stroke-dashoffset:0;stroke-opacity:1"><path
         id="path5078"
         d="m 1231.5,361.83 0.1,0.28 0.2,0.27 0.1,0.27 0.2,0.26 0.1,0.25 0.2,0.25 0.1,0.24 0.2,0.24 0.2,0.22 0.1,0.23 0.2,0.21 0.1,0.21 0.2,0.2 0.2,0.19 0.1,0.19 0.2,0.18 c 0.9,0.84 1.5,1.09 2.9,1.09 h 3.6 c -1.6,-5.47 -2.6,-9.22 -3.1,-12.29 -0.8,-5.33 0.5,-8.52 3.6,-8.52 1.9,0 4.2,1.44 5.3,3.49 0.9,1.43 1.3,2.82 1.8,5.17 h -1.3 c -0.8,-2.83 -1.7,-3.83 -3.2,-3.83 -2.2,0 -3.6,2.09 -3.1,4.78 0.1,0.8 0.4,2.34 0.9,4.08 0.1,0.5 0.5,2 0.8,3.59 0.5,1.89 0.6,2.39 0.9,3.53 h 8.2 l 0.8,4.74 h -11.3 c -2.6,0 -4.3,-0.64 -6.2,-2.39 -1.8,-1.74 -3,-3.64 -4.4,-7.13 z"
         inkscape:connector-curvature="0"
         style="fill:#000000;stroke-width:0" /></g>  </g>
  <path
     style="opacity:1;fill:none;fill-opacity:1;stroke:#393939;stroke-width:1.05833328;stroke-linecap:round;stroke-miterlimit:4;stroke-dasharray:none;stroke-dashoffset:0;stroke-opacity:1"
     d="m 11.435158,129.20982 c 0.308332,-3e-5 0.616665,-0.0221 0.924997,-0.0663 0.308332,-0.0442 0.616665,-0.11054 0.924997,-0.19884 0.308332,-0.0883 0.616665,-0.19869 0.924997,-0.3309 0.308332,-0.13222 0.616665,-0.28639 0.924997,-0.46223 0.308332,-0.17583 0.616665,-0.37345 0.924997,-0.5925 0.308332,-0.21906 0.616665,-0.45968 0.924997,-0.72147 0.308332,-0.26178 0.616665,-0.54487 0.924997,-0.8488 0.308332,-0.30393 0.616665,-0.62884 0.924997,-0.97423 0.308332,-0.3454 0.616665,-0.71141 0.924997,-1.09749 0.308332,-0.38608 0.616665,-0.79237 0.924997,-1.21827 0.308332,-0.42591 0.616665,-0.87156 0.924997,-1.33634 0.308332,-0.46477 0.616664,-0.94879 0.924997,-1.45139 0.308332,-0.5026 0.616664,-1.02389 0.924997,-1.56319 0.308332,-0.5393 0.616664,-1.09671 0.924997,-1.67149 0.308332,-0.57479 0.616664,-1.16706 0.924997,-1.77605 0.308332,-0.60898 0.616664,-1.23479 0.924997,-1.87661 0.308332,-0.64182 0.616664,-1.29975 0.924997,-1.97297 0.308332,-0.67321 0.616664,-1.3618 0.924997,-2.0649 0.308332,-0.7031 0.616664,-1.4208 0.924997,-2.15221 0.308332,-0.73141 0.616664,-1.47661 0.924997,-2.23468 0.308332,-0.75808 0.616664,-1.52911 0.924997,-2.31215 0.308332,-0.78304 0.616664,-1.57817 0.924997,-2.384428 0.308332,-0.80626 0.616664,-1.6237 0.924997,-2.45136 0.308332,-0.82766 0.616664,-1.66559 0.924997,-2.5128 0.308332,-0.84721 0.616664,-1.70374 0.924997,-2.5686 0.308332,-0.86485 0.616664,-1.73807 0.924997,-2.61863 0.308332,-0.88057 0.616664,-1.76851 0.924997,-2.66281 0.308332,-0.89429 0.616664,-1.79497 0.924997,-2.701 0.308332,-0.90602 0.616664,-1.81742 0.924997,-2.73313 0.308332,-0.91572 0.616664,-1.83579 0.924997,-2.75915 0.308332,-0.92336 0.616664,-1.85003 0.924997,-2.77897 0.308332,-0.92893 0.616664,-1.86013 0.924997,-2.79255 0.308332,-0.93242 0.616664,-1.86607 0.924997,-2.79988 0.308332,-0.93382 0.616664,-1.86781 0.924996,-2.80093 0.308333,-0.93312 0.616665,-1.86537 0.924997,-2.7957 0.308333,-0.93033 0.616665,-1.85873 0.924997,-2.78419 0.308333,-0.92545 0.616665,-1.84794 0.924997,-2.76644 0.308333,-0.9185 0.616665,-1.833 0.924997,-2.74249 0.308333,-0.90949 0.616665,-1.81395 0.924997,-2.71239 0.308333,-0.89844 0.616665,-1.79083 0.924997,-2.67621 0.308333,-0.88537 0.616665,-1.76369 0.924997,-2.63401 0.308333,-0.87033 0.616665,-1.73261 0.924997,-2.58593 0.308333,-0.85332 0.616665,-1.69762 0.924997,-2.53202 0.308333,-0.83441 0.616665,-1.65885 0.924997,-2.47246 0.308333,-0.81362 0.616665,-1.61634 0.924997,-2.40735 0.308333,-0.791 0.616665,-1.57021 0.924997,-2.33682 0.308333,-0.76662 0.616665,-1.52056 0.924997,-2.26107 0.308333,-0.74051 0.616665,-1.46751 0.924997,-2.180249 0.308333,-0.712743 0.616665,-1.411151 0.924997,-2.09453 0.308333,-0.683378 0.616665,-1.351635 0.924997,-2.004116 0.308333,-0.65248 0.616665,-1.289089 0.924997,-1.909209 0.308333,-0.62012 0.616665,-1.223651 0.924997,-1.81002 0.308333,-0.586368 0.616665,-1.155469 0.924997,-1.706771 0.308333,-0.551302 0.616665,-1.084697 0.924997,-1.599696 0.308333,-0.514999 0.616665,-1.011491 0.924997,-1.489032 0.308332,-0.477541 0.616665,-0.936017 0.924997,-1.375029 0.308332,-0.439013 0.616665,-0.858444 0.924997,-1.257943 0.308332,-0.3995 0.616665,-0.778946 0.924997,-1.138036 0.308332,-0.35909 0.616665,-0.697701 0.924997,-1.015576 0.308332,-0.317875 0.616665,-0.614891 0.924997,-0.890839 0.308332,-0.275948 0.616665,-0.530702 0.924997,-0.764104 0.308332,-0.233401 0.616665,-0.445322 0.924997,-0.635655 0.308332,-0.190332 0.616665,-0.358945 0.924997,-0.505781 0.308332,-0.146835 0.616665,-0.271762 0.924997,-0.374772 0.308332,-0.10301 0.616665,-0.183971 0.924997,-0.242924 0.308332,-0.05895 0.616665,-0.09577 0.924997,-0.11053 0.308332,-0.01476 0.616665,-0.0073 0.924997,0.02211 0.308332,0.02946 0.616665,0.08109 0.924997,0.154703 0.308332,0.07361 0.616665,0.169343 0.924997,0.286949 0.308332,0.117605 0.616665,0.257217 0.924997,0.41855 0.308332,0.161332 0.616665,0.344515 0.924997,0.549212 0.308332,0.204698 0.616665,0.43104 0.924997,0.678644 0.308332,0.247605 0.616665,0.516598 0.924997,0.806554 0.308332,0.289955 0.616665,0.600997 0.924997,0.932653 0.308332,0.331656 0.616665,0.68405 0.924997,1.056663 0.308332,0.372613 0.616665,0.765567 0.924997,1.178302 0.308332,0.412734 0.616665,0.845368 0.924997,1.297298 0.308332,0.45193 0.616664,0.923273 0.924997,1.413386 0.308332,0.490112 0.616664,0.999108 0.924997,1.526303 0.308332,0.527196 0.616664,1.072702 0.925001,1.635799 0.30833,0.563096 0.61666,1.143889 0.92499,1.741624 0.30834,0.597735 0.61667,1.212513 0.925,1.843545 0.30833,0.631032 0.61666,1.278417 0.925,1.941331 0.30833,0.662915 0.61666,1.341454 0.92499,2.034764 0.30834,0.69331 0.61667,1.401482 0.925,2.123632 0.30833,0.72215 0.61667,1.45837 0.925,2.20774 0.30833,0.74938 0.61666,1.51198 0.92499,2.2869 0.30834,0.77491 0.61667,1.5622 0.925,2.36092 0.30833,0.79872 0.61667,1.60893 0.925,2.42966 0.30833,0.82072 0.61666,1.65203 0.925,2.49293 0.30833,0.8409 0.61666,1.69145 0.92499,2.55064 0.30833,0.85918 0.61667,1.72706 0.925,2.6026 0.30833,0.87554 0.61666,1.7588 0.925,2.64874 0.30833,0.88994 0.61666,1.7866 0.92499,2.68894 0.30834,0.90233 0.61667,1.81038 0.925,2.7231 0.30833,0.91271 0.61667,1.83012 0.924999,2.75116 0.30833,0.92104 0.61666,1.84574 0.92499,2.77305 0.30834,0.92731 0.61667,1.85723 0.925,2.78872 0.30833,0.93149 0.61667,1.86455 0.925,2.79814 0.30833,0.93358 0.61666,1.86769 0.925,2.80128 0.30833,0.93358 0.61666,1.86664 0.92499,2.79813 0.30833,0.9315 0.61667,1.86141 0.925,2.78872 0.30833,0.92731 0.61666,1.852 0.925,2.77305 0.30833,0.92105 0.61666,1.83844 0.92499,2.75117 0.30834,0.91272 0.61667,1.82075 0.925,2.7231 0.30833,0.90235 0.61667,1.79898 0.925,2.68893 0.30833,0.88996 0.61666,1.77319 0.92499,2.64874 0.30834,0.87556 0.61667,1.74341 0.925,2.60261 0.30833,0.8592 0.61667,1.70971 0.925,2.55063 0.30833,0.84092 0.61666,1.67219 0.925,2.49294 0.30833,0.82075 0.61666,1.63091 0.92499,2.429648 0.30833,0.79874 0.61667,1.58599 0.925,2.36093 0.30833,0.77493 0.61666,1.53749 0.925,2.28689 0.30833,0.7494 0.61666,1.48556 0.92499,2.20774 0.30834,0.72218 0.61667,1.43029 0.925,2.12363 0.30833,0.69334 0.61666,1.37182 0.925,2.03477 0.30833,0.66294 0.61666,1.31026 0.92499,1.94133 0.30834,0.63106 0.61667,1.24578 0.925,1.84354 0.30833,0.59777 0.61667,1.1785 0.925,1.74163 0.30833,0.56313 0.61666,1.10856 0.925,1.6358 0.30833,0.52723 0.61666,1.03615 0.92499,1.5263 0.30833,0.49015 0.61667,0.96142 0.925,1.41339 0.30833,0.45196 0.61666,0.88452 0.925,1.29729 0.30833,0.41278 0.61666,0.80565 0.92499,1.17831 0.30834,0.37265 0.61667,0.72496 0.925,1.05666 0.30833,0.3317 0.61666,0.64266 0.925,0.93265 0.30833,0.29 0.61666,0.55891 0.92499,0.80656 0.30834,0.24764 0.61667,0.4739 0.925,0.67864 0.30833,0.20474 0.61667,0.38784 0.925,0.54921 0.30833,0.16138 0.61666,0.3009 0.925,0.41855 0.30833,0.11765 0.61666,0.21329 0.92499,0.28695 0.30833,0.0737 0.61667,0.1252 0.925,0.1547 0.30833,0.0295 0.61666,0.0368 0.925,0.0221 0.30833,-0.0147 0.61666,-0.0516 0.92499,-0.11053 0.30834,-0.0589 0.61667,-0.13996 0.925,-0.24293 0.30833,-0.10296 0.61666,-0.22798 0.925,-0.37477 0.30833,-0.14679 0.61666,-0.31549 0.92499,-0.50578 0.30834,-0.19029 0.61667,-0.4023 0.925,-0.63566 0.30833,-0.23336 0.61667,-0.48819 0.925,-0.7641 0.30833,-0.27591 0.61666,-0.57301 0.92499,-0.89084 0.30834,-0.31783 0.61667,-0.65653 0.925,-1.01557 0.30833,-0.35905 0.61667,-0.73858 0.925,-1.13804 0.30833,-0.39946 0.61666,-0.81897 0.925,-1.25794 0.30833,-0.43898 0.61666,-0.89753 0.92499,-1.37503 0.30834,-0.47751 0.61667,-0.97407 0.925,-1.48904 0.30833,-0.51496 0.61666,-1.04842 0.925,-1.59969 0.30833,-0.55127 0.61666,-1.12044 0.92499,-1.70677 0.30834,-0.58634 0.61667,-1.18994 0.925,-1.81002 0.30833,-0.62009 0.61667,-1.25676 0.925,-1.90921 0.30833,-0.65245 0.61666,-1.32077 0.92499,-2.00412 0.30834,-0.68335 0.61667,-1.38181 0.925,-2.09453 0.30833,-0.71271 0.61667,-1.43976 0.925,-2.18024 0.30833,-0.74048 0.61666,-1.49448 0.925,-2.26107 0.30833,-0.76659 0.61666,-1.54585 0.92499,-2.33683 0.30834,-0.79098 0.61667,-1.593748 0.925,-2.407338 0.30833,-0.8136 0.61666,-1.63808 0.925,-2.47246 0.30833,-0.83438 0.61666,-1.67873 0.92499,-2.53203 0.30834,-0.8533 0.61667,-1.71562 0.925,-2.58592 0.30833,-0.87031 0.61667,-1.74866 0.925,-2.63402 0.30833,-0.88536 0.61666,-1.77778 0.92499,-2.6762 0.30834,-0.89843 0.61667,-1.80291 0.925,-2.71239 0.30833,-0.90948 0.61667,-1.824 0.925,-2.74249 0.30833,-0.9185 0.61666,-1.841 0.925,-2.76645 0.30833,-0.92545 0.61666,-1.85386 0.92499,-2.78419 0.30833,-0.93032 0.61667,-1.86257 0.925,-2.79569 0.30833,-0.93312 0.61666,-1.86711 0.925,-2.80093 0.30833,-0.93382 0.61666,-1.86746 0.92499,-2.79988 0.30834,-0.93243 0.61667,-1.86362 0.925,-2.79256 0.30833,-0.92894 0.61667,-1.8556 0.925,-2.77897 0.30833,-0.92336 0.61666,-1.84341 0.92499,-2.75914 0.30834,-0.91573 0.61667,-1.82711 0.925,-2.73314 0.30833,-0.90603 0.61667,-1.80669 0.925,-2.701 0.30833,-0.89431 0.61666,-1.78223 0.925,-2.6628 0.30833,-0.88058 0.61666,-1.75377 0.92499,-2.61864 0.30833,-0.86487 0.61667,-1.72137 0.925,-2.5686 0.30833,-0.84722 0.61666,-1.68511 0.925,-2.51279 0.30833,-0.82768 0.61666,-1.64509 0.92499,-2.45137 0.30834,-0.80627 0.61667,-1.60136 0.925,-2.38442 0.30833,-0.78307 0.61666,-1.55405 0.925,-2.31215 0.30833,-0.75811 0.61666,-1.50325 0.92499,-2.23469 0.30834,-0.73143 0.61667,-1.449078 0.925,-2.152208 0.30833,-0.703129 0.61667,-1.391658 0.925,-2.064903 0.30833,-0.673246 0.61666,-1.331117 0.925,-1.97297 0.30833,-0.641853 0.61666,-1.267591 0.92499,-1.876611 0.30833,-0.60902 0.61667,-1.201222 0.925,-1.776043 0.30833,-0.574822 0.61666,-1.132159 0.925,-1.671493 0.30833,-0.539335 0.61666,-1.060558 0.92499,-1.563195 0.30834,-0.502637 0.61667,-0.986577 0.925,-1.45139 0.30833,-0.464813 0.61666,-0.910384 0.925,-1.33633 0.30833,-0.425946 0.61666,-0.83215 0.92499,-1.218274 0.30834,-0.386125 0.61667,-0.75205 0.925,-1.097486 0.30833,-0.345437 0.61667,-0.670262 0.925,-0.974236 0.30833,-0.303975 0.61666,-0.586972 0.925,-0.848802 0.30833,-0.26183 0.61666,-0.502365 0.92499,-0.721464 0.30833,-0.219099 0.61667,-0.416632 0.925,-0.592508 0.30833,-0.175876 0.61666,-0.329964 0.925,-0.462223 0.30833,-0.132259 0.61666,-0.242557 0.92499,-0.330902 0.30834,-0.08835 0.61667,-0.154605 0.925,-0.198838 0.30833,-0.04423 0.61666,-0.06631 0.925,-0.06633"
     title="sin(2*pi*x/24)"
     id="path5139"
     inkscape:connector-curvature="0" />
  <path
     style="fill:none;fill-rule:evenodd;stroke:#000000;stroke-width:0.5291667;stroke-linecap:butt;stroke-linejoin:miter;stroke-miterlimit:4;stroke-dasharray:3.175, 3.175;stroke-dashoffset:0;stroke-opacity:1;marker-start:url(#marker6313);marker-end:url(#marker6323)"
     d="m 37.553313,10.865488 c 0,58.586304 0,58.586304 0,58.586304"
     id="path6309"
     inkscape:connector-curvature="0" />
  <g
     id="g7403"
     transform="matrix(0.44218438,0,0,0.44218438,-67.477231,-44.478854)">
    <g
       word-spacing="normal"
       letter-spacing="normal"
       font-size-adjust="none"
       font-stretch="normal"
       font-weight="normal"
       font-variant="normal"
       font-style="normal"
       stroke-miterlimit="10.433"
       xml:space="preserve"
       transform="matrix(0.3,0,0,-0.3,-52.5,222.75)"
       id="g7401"
       style="font-style:normal;font-variant:normal;font-weight:normal;font-stretch:normal;letter-spacing:normal;word-spacing:normal;text-anchor:start;fill:none;fill-opacity:1;fill-rule:evenodd;stroke:#000000;stroke-linecap:butt;stroke-linejoin:miter;stroke-miterlimit:10.43299961;stroke-dasharray:none;stroke-dashoffset:0;stroke-opacity:1"><path
         id="path7399"
         d="m 1238.2,346.1 0.3,1.73 3.6,21.83 c 3.3,-1.3 4.7,-6.03 3.6,-12.36 -0.9,-5.87 -3.5,-9.26 -7.2,-9.47 l -0.3,-1.73 c 6.3,0.84 11.6,6.42 12.7,13.45 1.2,6.81 -2.2,11.75 -8.5,12.2 l 0.7,3.99 c 0.3,1.84 0.5,2.78 0.8,3.94 l -2.2,0.93 c -0.1,-1.18 -0.2,-2.43 -0.6,-4.42 l -0.7,-4.44 -0.3,-1.75 -3.6,-21.92 c -1.3,0.55 -2.2,1.35 -2.7,2.5 -1.2,2.44 -1.6,6.22 -0.9,10.16 0.9,5.62 3.7,9.12 7.2,9.26 l 0.3,1.75 c -6.1,-0.7 -11.6,-6.37 -12.7,-13.25 -1.1,-6.93 2.3,-12.01 8.4,-12.51 l -0.8,-5.03 c -0.4,-2.24 -0.6,-3.64 -1,-5.03 l 2.3,-0.55 c 0.2,1.64 0.2,1.8 0.5,3.98 l 0.2,1.35 z"
         inkscape:connector-curvature="0"
         style="fill:#000000;stroke-width:0" /></g>  </g>
  <path
     style="fill:none;fill-rule:evenodd;stroke:#000000;stroke-width:0.35277778;stroke-linecap:butt;stroke-linejoin:miter;stroke-miterlimit:4;stroke-dasharray:none;stroke-opacity:1"
     d="m 66.770873,10.903285 c 15.875,0 15.875,-0.377976 15.875,-0.377976"
     id="path7438"
     inkscape:connector-curvature="0" />
  <flowRoot
     xml:space="preserve"
     id="flowRoot7440"
     style="font-style:normal;font-variant:normal;font-weight:normal;font-stretch:normal;font-size:14px;line-height:125%;font-family:Roboto;-inkscape-font-specification:Roboto;text-align:start;letter-spacing:0px;word-spacing:0px;writing-mode:lr-tb;text-anchor:start;fill:#000000;fill-opacity:1;stroke:none;stroke-width:1px;stroke-linecap:butt;stroke-linejoin:miter;stroke-opacity:1"
     transform="matrix(0.26458333,0,0,0.26458333,-15.779128,-64.224682)"><flowRegion
       id="flowRegion7442"><rect
         id="rect7444"
         width="214.28572"
         height="56.42857"
         x="377.85715"
         y="274.66251" /></flowRegion><flowPara
       id="flowPara7446"
       style="font-style:italic;font-variant:normal;font-weight:normal;font-stretch:normal;font-size:26.66666794px;font-family:Roboto;-inkscape-font-specification:'Roboto Italic'">m + A</flowPara></flowRoot>  <flowRoot
     transform="matrix(0.26458333,0,0,0.26458333,46.96492,53.514902)"
     style="font-style:normal;font-variant:normal;font-weight:normal;font-stretch:normal;font-size:14px;line-height:125%;font-family:Roboto;-inkscape-font-specification:Roboto;text-align:start;letter-spacing:0px;word-spacing:0px;writing-mode:lr-tb;text-anchor:start;fill:#000000;fill-opacity:1;stroke:none;stroke-width:1px;stroke-linecap:butt;stroke-linejoin:miter;stroke-opacity:1"
     id="flowRoot7454"
     xml:space="preserve"><flowRegion
       id="flowRegion7450"><rect
         y="274.66251"
         x="377.85715"
         height="56.42857"
         width="214.28572"
         id="rect7448" /></flowRegion><flowPara
       style="font-style:italic;font-variant:normal;font-weight:normal;font-stretch:normal;font-size:26.66666794px;font-family:Roboto;-inkscape-font-specification:'Roboto Italic'"
       id="flowPara7452">m - A</flowPara></flowRoot>  <path
     inkscape:connector-curvature="0"
     id="path7456"
     d="m 127.43605,129.58781 c 15.875,0 15.875,-0.37798 15.875,-0.37798"
     style="fill:none;fill-rule:evenodd;stroke:#000000;stroke-width:0.35277778;stroke-linecap:butt;stroke-linejoin:miter;stroke-miterlimit:4;stroke-dasharray:none;stroke-opacity:1" />
</svg>
